#!OML:ASF H:\ManfredObstacles\Project 1\Capture day 2\Session 1\male.ASF
:FULLY-SPECIFIED
:DEGREES
447
root 2.49291 16.6961 -32.2065 -165.129 0.493348 179.98
lowerback -3.94365 5.70383 -0.863038
upperback 0.470576 7.73081 -2.05826
thorax 2.85345 3.86674 -1.13614
lowerneck -43.2847 -5.57901 -3.51333
upperneck 38.0717 -9.36406 4.21331
head 23.6348 -3.32825 -0.0505843
rclavicle -8.06196e-014 3.97569e-015
rhumerus -33.456 25.0665 -92.138
rradius 105.765
rwrist 6.36078
rhand -13.1068 -2.03092
rfingers 7.12502
rthumb 12.9902 -31.6065
lclavicle -8.06196e-014 3.97569e-015
lhumerus -75.0473 -31.5364 92.6489
lradius 108.698
lwrist -16.6897
lhand -20.2709 8.96421
lfingers 7.12502
lthumb 6.07829 38.857
rfemur 8.72892 3.67613 26.619
rtibia 20.0337
rfoot 39.4306 -8.14237
rtoes -15.1277
lfemur -40.1067 -5.79384 -17.4927
ltibia 35.1538
lfoot 8.25299 8.78685
ltoes -8.38603
448
root 2.49211 16.669 -32.5111 -165.467 0.194537 180.441
lowerback -3.86942 5.78304 -0.414868
upperback 0.550088 7.80199 -1.86465
thorax 2.92757 3.90421 -1.17962
lowerneck -43.3176 -5.80414 -3.83352
upperneck 38.18 -9.56411 4.32332
head 23.7817 -3.42681 -0.0050058
rclavicle 1.47908e-014 1.08089e-014
rhumerus -34.3408 24.6151 -92.125
rradius 105.695
rwrist 6.20095
rhand -12.9661 -1.86182
rfingers 7.12502
rthumb 13.1258 -31.4287
lclavicle 1.47908e-014 1.08089e-014
lhumerus -74.8148 -31.6523 93.1136
lradius 109.13
lwrist -16.7138
lhand -20.4231 9.03776
lfingers 7.12502
lthumb 5.93132 38.9347
rfemur 8.59983 3.16491 27.0698
rtibia 22.1581
rfoot 39.2747 -8.49561
rtoes -15.0369
lfemur -39.3532 -5.99112 -17.1363
ltibia 34.2739
lfoot 8.74553 7.96768
ltoes -8.54156
449
root 2.49094 16.6285 -32.8126 -165.884 -0.0764853 180.907
lowerback -3.69672 5.82818 0.0196694
upperback 0.657092 7.82937 -1.65343
thorax 2.97032 3.92082 -1.20992
lowerneck -43.3865 -5.97534 -4.08583
upperneck 38.2858 -9.7111 4.40515
head 23.9254 -3.50003 0.030735
rclavicle -1.2347e-013 -5.09386e-016
rhumerus -35.2789 24.0224 -92.1783
rradius 105.483
rwrist 6.11917
rhand -12.8308 -1.79283
rfingers 7.12502
rthumb 13.2563 -31.3513
lclavicle -1.2347e-013 -5.09386e-016
lhumerus -74.4566 -31.7068 93.5718
lradius 109.505
lwrist -16.8246
lhand -20.6359 9.05579
lfingers 7.12502
lthumb 5.72592 38.9584
rfemur 8.32757 2.66176 27.4979
rtibia 24.6674
rfoot 38.5114 -8.76823
rtoes -15.1797
lfemur -38.5806 -6.17282 -16.803
ltibia 33.8849
lfoot 9.33858 7.21292
ltoes -7.1409
450
root 2.48896 16.5748 -33.1116 -166.352 -0.310488 181.302
lowerback -3.50688 5.79502 0.334774
upperback 0.820675 7.7519 -1.43263
thorax 3.04189 3.88034 -1.17174
lowerneck -43.5681 -6.02858 -4.17808
upperneck 38.3914 -9.74268 4.41842
head 24.067 -3.51572 0.0390324
rclavicle -3.15757e-014 -3.54085e-015
rhumerus -36.1992 23.4338 -92.3008
rradius 105.121
rwrist 6.12177
rhand -12.7435 -1.8541
rfingers 7.12502
rthumb 13.3404 -31.4071
lclavicle -3.15757e-014 -3.54085e-015
lhumerus -73.9213 -31.5788 93.9497
lradius 109.818
lwrist -16.9895
lhand -20.8974 9.03055
lfingers 7.12502
lthumb 5.47336 38.9399
rfemur 7.8913 2.14254 27.8072
rtibia 27.5402
rfoot 37.2689 -8.97965
rtoes -15.6511
lfemur -37.7647 -6.28686 -16.6113
ltibia 33.9088
lfoot 9.85317 6.54915
ltoes -5.91146
451
root 2.48535 16.5087 -33.41 -166.842 -0.525194 181.58
lowerback -3.36553 5.63784 0.479695
upperback 1.06085 7.5328 -1.21557
thorax 3.19386 3.77306 -1.04453
lowerneck -43.9025 -5.91168 -4.02579
upperneck 38.4856 -9.6032 4.31112
head 24.1877 -3.44818 -0.00468167
rclavicle 9.08819e-015 9.33667e-015
rhumerus -37.039 22.925 -92.4861
rradius 104.595
rwrist 6.24638
rhand -12.7131 -2.04907
rfingers 7.12502
rthumb 13.3697 -31.6001
lclavicle 9.08819e-015 9.33667e-015
lhumerus -73.165 -31.2091 94.1918
lradius 110.074
lwrist -17.2306
lhand -21.1923 8.9891
lfingers 7.12502
lthumb 5.18863 38.9056
rfemur 7.29198 1.55791 27.9298
rtibia 30.7264
rfoot 35.6932 -9.20031
rtoes -16.2099
lfemur -36.8739 -6.30072 -16.6313
ltibia 34.2705
lfoot 10.0571 6.13478
ltoes -4.47611
